# OBJ generated by ONSHAPE BY PTC INC, 1.190 Units = meters
mtllib ovenV1.mtl
g Part 1
v 0.636396 0.636396 1.88 
v 0.636396 -0.636396 1.88 
v 0.636396 -0.636396 0 
v 0.636396 0.636396 0 
v -0.636396 0.636396 1.88 
v -0.636396 0.636396 0 
v -0.636396 -0.636396 1.88 
v -0.636396 -0.636396 0 
v 0.575 -0.636396 1.7 
v 0.575 -0.636396 1.2 
v -0.575 -0.636396 1.7 
v -0.575 -0.636396 1.2 
v 0.575 0.372 1.2 
v 0.575 0.372 1.7 
v -0.575 0.372 1.7 
v -0.575 0.372 1.2 
vn 1 0 0 
vn 0 1 0 
vn -1 0 0 
vn 0 0 1 
vn 0 0 -1 
vn 0 -1 0 
vn -1 0 -2.22045e-16 
vn 0 0 -1 
vn 1 0 2.22045e-16 
vn 0 -1 0 
vn 0 0 1 
usemtl 0.647059_0.647059_0.647059_0.000000_0.000000
o mesh0
f 1//1 2//1 3//1 
f 3//1 4//1 1//1 
o mesh1
f 5//2 1//2 4//2 
f 4//2 6//2 5//2 
o mesh2
f 7//3 5//3 6//3 
f 6//3 8//3 7//3 
o mesh3
f 7//4 2//4 1//4 
f 1//4 5//4 7//4 
o mesh4
f 6//5 4//5 3//5 
f 3//5 8//5 6//5 
o mesh5
f 2//6 9//6 10//6 
f 2//6 7//6 11//6 
f 11//6 9//6 2//6 
f 7//6 8//6 12//6 
f 12//6 11//6 7//6 
f 8//6 3//6 10//6 
f 10//6 12//6 8//6 
f 10//6 3//6 2//6 
o mesh6
f 13//7 10//7 9//7 
f 9//7 14//7 13//7 
o mesh7
f 14//8 9//8 11//8 
f 11//8 15//8 14//8 
o mesh8
f 11//9 12//9 16//9 
f 16//9 15//9 11//9 
o mesh9
f 15//10 16//10 13//10 
f 13//10 14//10 15//10 
o mesh10
f 16//11 12//11 10//11 
f 10//11 13//11 16//11 
